# xmcd
#
# Track frame offsets: 
#        150
#        13616
#        31888
#        46549
#        62505
#        77740
#        94874
#        114437
#        131745
#        150534
#        167446
#        186221
#
# Disc length: 2661 seconds
#
# Revision: 0
# Processed by: cddbd v1.5.2PL0 Copyright (c) Steve Scherf et al.
# Submitted via: ExactAudioCopy v0.95b4
#
DISCID=860a630c
DTITLE=Terri Clark - Life Goes On
DYEAR=2005
DGENRE=Country
TTITLE0=Life Goes On
TTITLE1=Damn Right
TTITLE2=She Didn't HaveTime
TTITLE3=Cowboy Days
TTITLE4=Not Enough Tequila
TTITLE5=Bigger Windows
TTITLE6=I Wish He'd Been Drinkin' Whiskey
TTITLE7=Honky Tonk Song
TTITLE8=Travelin' Soul
TTITLE9=Everybody's Gotta Go Sometime
TTITLE10=Slow News Day
TTITLE11=Tear It All Down
EXTD=
EXTT0=
EXTT1=
EXTT2=
EXTT3=
EXTT4=
EXTT5=
EXTT6=
EXTT7=
EXTT8=
EXTT9=
EXTT10=
EXTT11=
PLAYORDER=
